<?xml version="1.0" encoding="utf-8"?>
<!-- Generator: Adobe Illustrator 16.0.0, SVG Export Plug-In . SVG Version: 6.00 Build 0)  -->
<!DOCTYPE svg PUBLIC "-//W3C//DTD SVG 1.1//EN" "http://www.w3.org/Graphics/SVG/1.1/DTD/svg11.dtd">
<svg version="1.1" xmlns="http://www.w3.org/2000/svg" xmlns:xlink="http://www.w3.org/1999/xlink" x="0px" y="0px"
	 width="229.623px" height="61.167px" viewBox="0 0 229.623 61.167" enable-background="new 0 0 229.623 61.167"
	 xml:space="preserve">
<g>
	<defs>
		<rect y="0" width="229.623" height="61.166"/>
	</defs>
	<clipPath>
		<use xlink:href="#SVGID_1_"  overflow="visible"/>
	</clipPath>
	<path clip-path="url(#SVGID_2_)" fill="#FFE000" d="M112.212,54.038c0,0-6.548,7.129-20.909,7.129
		c-19.643,0-31.466-13.771-31.466-30.583C59.837,13.78,71.66,0,91.303,0c14.465,0,20.909,7.137,20.909,7.137l-8.107,10.844
		c0,0-6.063-4.4-12.603-4.4c-9.969,0-17.002,6.843-17.002,17.002c0,10.167,7.033,17.002,17.002,17.002
		c8.298,0,12.603-4.392,12.603-4.392L112.212,54.038z"/>
	<path clip-path="url(#SVGID_2_)" fill="#00FF00" d="M62.391,60.19H32.203V0.977H61.9c14.504,0,21.607,6.115,21.607,16.184
		c0,4.837-2.772,10.137-7.119,12.202c5.231,1.977,8.798,7.532,8.798,13.157C85.187,53.577,76.895,60.19,62.391,60.19 M61.603,13.312
		H46.697v11.94h14.809c4.636,0,6.806-2.764,6.806-6.018C68.313,15.979,66.143,13.312,61.603,13.312 M46.697,35.023v12.832H62.88
		c4.444,0,6.91-3.062,6.91-6.315c0-3.358-2.466-6.517-7.006-6.517H46.697z"/>
	<path clip-path="url(#SVGID_2_)" fill="#FF0089" d="M48.251,60.189h16.183L32.203,0.977L0,60.189h16.087l4.301-9.115h23.58
		L48.251,60.189z M24.147,43.107l8.055-17.068l8.021,17.068H24.147z"/>
	<path clip-path="url(#SVGID_2_)" fill="#1D1D1B" d="M127.859,30.656c0-3.049,2.345-4.939,4.912-4.939
		c2.874,0,4.928,2.242,4.928,4.838c0,2.595-2.042,4.836-4.938,4.836c-2.937,0-4.901-2.329-4.901-4.725V30.656z M130.24,30.542
		c0,1.422,0.971,2.758,2.569,2.758c1.689,0,2.509-1.538,2.509-2.733c0-1.21-0.819-2.759-2.532-2.759
		c-1.65,0-2.546,1.412-2.546,2.721V30.542z"/>
	<path clip-path="url(#SVGID_2_)" fill="#1D1D1B" d="M138.896,28.224h1.951v0.743c0,0,0.127-0.252,0.431-0.492
		c0.302-0.251,0.792-0.491,1.523-0.491c0.479,0,1.083,0.127,1.599,0.668c0.152,0.151,0.289,0.341,0.416,0.58
		c0.141-0.215,0.304-0.429,0.505-0.606c0.415-0.378,0.983-0.642,1.714-0.642c0.491,0,1.271,0.113,1.839,0.706
		c0.654,0.693,0.755,1.16,0.755,2.707v3.819h-2.09v-3.717c0-0.29,0-0.668-0.14-0.983c-0.126-0.327-0.39-0.567-0.932-0.567
		c-0.58,0-0.87,0.266-1.007,0.58c-0.153,0.315-0.153,0.668-0.153,0.868v3.819h-2.091v-3.805c0-0.189,0-0.554-0.125-0.868
		c-0.138-0.328-0.391-0.594-0.92-0.594c-0.592,0-0.882,0.277-1.033,0.618c-0.151,0.341-0.151,0.718-0.151,0.932v3.717h-2.091V28.224
		z"/>
	<path clip-path="url(#SVGID_2_)" fill="#1D1D1B" d="M151.103,28.224h1.953v0.743c0.238-0.341,0.68-0.983,1.927-0.983
		c2.356,0,2.596,1.916,2.596,2.86v4.372h-2.092v-3.819c0-0.767-0.163-1.448-1.097-1.448c-1.032,0-1.196,0.744-1.196,1.462v3.805
		h-2.091V28.224z"/>
	<path clip-path="url(#SVGID_2_)" fill="#1D1D1B" d="M159.064,25.893h2.092v1.587h-2.092V25.893z M159.064,28.225h2.092v6.992
		h-2.092V28.225z"/>
	<path clip-path="url(#SVGID_2_)" fill="#1D1D1B" d="M169.735,32.557c-0.379,1.587-1.778,2.885-3.666,2.885
		c-2.117,0-3.742-1.663-3.742-3.741c0-2.053,1.6-3.716,3.691-3.716c1.851,0,3.351,1.222,3.702,2.935h-2.115
		c-0.227-0.478-0.643-0.983-1.512-0.983c-0.492-0.026-0.908,0.163-1.209,0.492c-0.29,0.328-0.454,0.78-0.454,1.284
		c0,1.021,0.668,1.777,1.663,1.777c0.869,0,1.285-0.504,1.512-0.933H169.735z"/>
	<path clip-path="url(#SVGID_2_)" fill="#1D1D1B" d="M170.554,31.701c0-1.702,1.222-3.705,3.767-3.705s3.767,2.003,3.767,3.716
		c0,1.714-1.222,3.717-3.767,3.717s-3.767-2.003-3.767-3.717V31.701z M172.644,31.726c0,1.008,0.77,1.751,1.677,1.751
		s1.675-0.743,1.675-1.765c0-1.02-0.768-1.764-1.675-1.764s-1.677,0.744-1.677,1.764V31.726z"/>
	<path clip-path="url(#SVGID_2_)" fill="#1D1D1B" d="M179.271,28.224h1.954v0.743c0,0,0.125-0.252,0.426-0.492
		c0.303-0.251,0.794-0.491,1.525-0.491c0.479,0,1.083,0.127,1.601,0.668c0.151,0.151,0.289,0.341,0.414,0.58
		c0.138-0.215,0.303-0.429,0.504-0.606c0.416-0.378,0.984-0.642,1.715-0.642c0.49,0,1.271,0.113,1.839,0.706
		c0.654,0.693,0.755,1.16,0.755,2.707v3.819h-2.09v-3.717c0-0.29,0-0.668-0.14-0.983c-0.125-0.327-0.39-0.567-0.932-0.567
		c-0.579,0-0.869,0.266-1.008,0.58c-0.151,0.315-0.151,0.668-0.151,0.868v3.819h-2.091v-3.805c0-0.189,0-0.554-0.126-0.868
		c-0.139-0.328-0.392-0.594-0.919-0.594c-0.594,0-0.884,0.277-1.033,0.618c-0.152,0.341-0.152,0.718-0.152,0.932v3.717h-2.091
		V28.224z"/>
	<path clip-path="url(#SVGID_2_)" fill="#1D1D1B" d="M199.289,28.311c-0.291-0.402-0.644-0.742-1.046-1.007
		c-0.606-0.416-1.336-0.656-2.166-0.656c-2.042,0-3.819,1.562-3.819,3.894c0,2.369,1.789,3.93,3.831,3.93
		c0.981,0,1.851-0.34,2.494-0.843c0.653-0.519,1.107-1.225,1.261-1.954h-4.637v-0.857h5.844c-0.01,0.542-0.138,1.222-0.415,1.801
		c-0.805,1.752-2.67,2.771-4.547,2.771c-2.721,0-4.875-2.089-4.875-4.848c0-2.797,2.191-4.812,4.888-4.812
		c1.89,0,3.641,1.057,4.37,2.581H199.289z"/>
	<path clip-path="url(#SVGID_2_)" fill="#1D1D1B" d="M202.374,28.438h0.883v1.108c0.49-1.008,1.374-1.272,2.167-1.298v0.92h-0.089
		c-1.311,0-2.041,0.819-2.041,2.356v3.692h-0.92V28.438z"/>
	<path clip-path="url(#SVGID_2_)" fill="#1D1D1B" d="M205.788,31.814c0-1.889,1.412-3.566,3.591-3.566
		c2.192,0,3.603,1.677,3.603,3.578c0,1.903-1.41,3.565-3.603,3.565c-2.179,0-3.591-1.662-3.591-3.565V31.814z M206.707,31.838
		c0,1.538,1.173,2.698,2.672,2.698c1.511,0,2.67-1.16,2.67-2.709c0-1.55-1.159-2.708-2.67-2.708c-1.499,0-2.672,1.158-2.672,2.708
		V31.838z"/>
	<path clip-path="url(#SVGID_2_)" fill="#1D1D1B" d="M220.616,35.216h-0.883v-1.211c-0.378,0.883-1.298,1.411-2.507,1.398
		c-2.115-0.036-2.859-1.474-2.859-3.124v-3.842h0.919v3.666c0,1.461,0.656,2.443,2.181,2.433c1.411-0.015,2.217-0.858,2.217-2.27
		v-3.829h0.933V35.216z"/>
	<path clip-path="url(#SVGID_2_)" fill="#1D1D1B" d="M222.431,28.438h0.881v1.412c0.554-0.984,1.537-1.601,2.834-1.601
		c2.28,0,3.478,1.851,3.478,3.603c0,1.89-1.373,3.553-3.478,3.553c-1.499,0-2.468-0.869-2.785-1.576v1.388v2.568h-0.93V28.438z
		 M228.69,31.813c0-1.271-0.894-2.708-2.722-2.708c-0.755,0-1.424,0.302-1.914,0.794c-0.467,0.492-0.756,1.171-0.756,1.938
		c0,0.755,0.289,1.438,0.781,1.93c0.479,0.478,1.159,0.768,1.914,0.768c1.524,0,2.696-1.16,2.696-2.709V31.813z"/>
</g>
</svg>
